<svg width="23" height="23" xmlns="http://www.w3.org/2000/svg"><path d="M18.102 15.197c-.172-.157-.344-.315-.516-.315-.515 0-.86.315-.86.786 0 .314.173.472.345.629 2.062 1.414 3.437 3.614 3.609 6.128h1.547c-.172-2.985-1.719-5.5-4.125-7.228m-6.531-2.672c-3.094 0-5.672-2.357-5.672-5.185-.172-2.986 2.406-5.343 5.672-5.343 3.093 0 5.671 2.357 5.671 5.185 0 2.986-2.578 5.343-5.671 5.343zm7.39-5.185c0-3.772-3.265-6.915-7.562-6.915-3.953 0-7.39 2.986-7.39 6.915 0 2.514 1.546 4.714 3.78 5.971-4.297 1.1-7.39 4.714-7.562 9.114h1.547c.172-4.557 4.297-8.171 9.28-8.328h.517c4.125 0 7.39-2.986 7.39-6.757z"/></svg>