<svg width="22" height="22" xmlns="http://www.w3.org/2000/svg"><path d="M7.726 0h-5.29A2.443 2.443 0 0 0 0 2.435v5.29a2.443 2.443 0 0 0 2.435 2.436h5.29a2.443 2.443 0 0 0 2.436-2.435V2.422A2.431 2.431 0 0 0 7.726 0zm.744 7.712a.75.75 0 0 1-.744.744h-5.29a.75.75 0 0 1-.745-.744v-5.29a.75.75 0 0 1 .744-.744h5.29a.75.75 0 0 1 .745.744v5.29zm-.744 4.127h-5.29A2.443 2.443 0 0 0 0 14.274v5.29A2.443 2.443 0 0 0 2.435 22h5.29a2.443 2.443 0 0 0 2.436-2.435v-5.29a2.434 2.434 0 0 0-2.435-2.436zm.744 7.712a.75.75 0 0 1-.744.744h-5.29a.75.75 0 0 1-.745-.744v-5.29a.75.75 0 0 1 .744-.744h5.29a.75.75 0 0 1 .745.744v5.29zM19.565 0h-5.29a2.443 2.443 0 0 0-2.436 2.435v5.29a2.443 2.443 0 0 0 2.435 2.436h5.29A2.443 2.443 0 0 0 22 7.726V2.422A2.431 2.431 0 0 0 19.565 0zm.744 7.712a.75.75 0 0 1-.744.744h-5.29a.75.75 0 0 1-.745-.744v-5.29a.75.75 0 0 1 .744-.744h5.29a.75.75 0 0 1 .745.744v5.29zm-3.383 4.127a5.076 5.076 0 0 0-5.074 5.074c0 2.8 2.273 5.073 5.074 5.073 2.8 0 5.074-2.273 5.074-5.073 0-2.801-2.287-5.074-5.074-5.074zm0 8.456a3.384 3.384 0 0 1 0-6.765 3.384 3.384 0 0 1 3.383 3.383 3.392 3.392 0 0 1-3.383 3.382z"/></svg>