<svg width="22" height="27" xmlns="http://www.w3.org/2000/svg"><path d="M5.334 14.365a.987.987 0 0 0-.978.985c0 .54.442.986.978.986a.987.987 0 0 0 .979-.986.987.987 0 0 0-.979-.985zm0 4.132a.987.987 0 0 0-.978.985c0 .54.442.986.978.986a.987.987 0 0 0 .979-.986.987.987 0 0 0-.979-.985zm0-8.232a.987.987 0 0 0-.978.985c0 .54.442.985.978.985a.987.987 0 0 0 .979-.985.967.967 0 0 0-.979-.985zm15.72-6.166h-2.652v-.54a.568.568 0 0 0-.568-.573h-3.125a3.695 3.695 0 0 0-1.01-1.812A3.802 3.802 0 0 0 10.984.03c-1.041 0-1.988.445-2.683 1.144-.473.477-.852 1.081-1.01 1.812H4.198c-.316 0-.6.254-.6.572v.54H.978A.987.987 0 0 0 0 5.085v19.96c0 .541.442.986.978.986h20.075c.537 0 .947-.445.947-.985V5.084c0-.572-.41-.985-.947-.985zM9.437 2.287c.473-.477.852-.795 1.578-.795.726 0 1.105.286 1.578.795.252.254.19.318.316.7H9.09c.158-.382.064-.414.348-.7M5.082 4.448H16.95V5.72H5.082m14.993 18.308H1.925V6.038h1.673v.54c0 .318.253.572.6.572h13.636a.568.568 0 0 0 .568-.572v-.54h1.704v17.99h-.031zm-3.44-13.7H8.237c-.315 0-.568.572-.568.89 0 .318.253.89.568.89h8.396c.316 0 .6-.572.6-.89-.032-.318-.284-.89-.6-.89zm0 8.264H8.237c-.315 0-.568.573-.568.89 0 .318.253.859.568.859h8.396c.316 0 .6-.54.6-.859-.032-.35-.284-.89-.6-.89zm0-4.132H8.237c-.315 0-.568.54-.568.89 0 .318.253.89.568.89h8.396c.316 0 .6-.54.6-.89-.032-.317-.284-.89-.6-.89z"/></svg>