<svg width="24" height="24" xmlns="http://www.w3.org/2000/svg"><g><path d="M11.99 13.03A6.279 6.279 0 0 0 12.015.472h-.025a6.279 6.279 0 0 0 0 12.558zm0-2.08a4.2 4.2 0 1 1 0-8.398 4.2 4.2 0 0 1 0 8.399z"/><path d="M11.99 10.95C5.628 10.95.473 16.108.473 22.469a1.04 1.04 0 0 0 2.079 0 9.439 9.439 0 0 1 9.438-9.438 1.04 1.04 0 0 0 0-2.08zM17.02 14.032V13.9a1.039 1.039 0 1 1 2.078 0v.13c.382.098.742.25 1.073.446l.094-.094a1.037 1.037 0 1 1 1.47 1.468l-.094.093c.194.33.346.69.444 1.071h.13a1.038 1.038 0 1 1 0 2.075h-.13a4.106 4.106 0 0 1-.445 1.07l.093.094a1.037 1.037 0 0 1 0 1.469 1.04 1.04 0 0 1-1.47 0l-.093-.094a4.118 4.118 0 0 1-1.072.444v.131a1.04 1.04 0 1 1-2.079 0v-.13a4.138 4.138 0 0 1-1.071-.445l-.094.094a1.04 1.04 0 0 1-1.456-.013 1.036 1.036 0 0 1-.013-1.456l.094-.093a4.13 4.13 0 0 1-.445-1.071h-.131a1.038 1.038 0 1 1 0-2.075h.13a4.12 4.12 0 0 1 .445-1.07l-.094-.094a1.037 1.037 0 0 1 .001-1.469 1.04 1.04 0 0 1 1.47 0l.093.094a4.176 4.176 0 0 1 1.072-.444zm1.04 6.096a2.076 2.076 0 0 0 0-4.151 2.077 2.077 0 1 0 0 4.151z"/></g></svg>